<svg id="b8053b35-1471-4532-817a-e3f14c1bb890" data-name="svg-05b78cde-0c3d-438d-b76f-a3e281b0c626" xmlns="http://www.w3.org/2000/svg" viewBox="0 0 795.67945 96.53072"><path id="f8360f98-5d24-4c3e-a19d-b8c647d8d80a" data-name="SvgjsPath40570502" d="M34.17317,62.65276A1.77318,1.77318,0,0,0,32.685,64.54488V68.1378a1.88,1.88,0,0,0,1.89213,1.80708H50.96844a1.896,1.896,0,0,0,1.89213-1.89212l-.1063-3.50788a1.76953,1.76953,0,0,0-1.78583-1.78582h-.40393a1.837,1.837,0,0,1-1.89213-1.91339L48.97,9.39685a1.95034,1.95034,0,0,1,1.70079-1.91338l1.67952-.085a1.718,1.718,0,0,0,1.70079-1.80709l.1063-3.59291A1.83174,1.83174,0,0,0,52.2653.10631L39.67947,0,5.79128.10631H1.90073A1.904,1.904,0,0,0,.0086,2.10473L.19994,5.889A1.96078,1.96078,0,0,0,2.007,7.69606l1.59449.10631A1.7877,1.7877,0,0,1,5.3023,9.69449l-.29763,22.089.085,28.87086a1.82457,1.82457,0,0,1-1.59449,1.89213H1.90073A1.8413,1.8413,0,0,0,.19994,64.35354V68.2441a1.92137,1.92137,0,0,0,1.89213,1.99842l15.20079-.19134a1.78756,1.78756,0,0,0,1.78582-1.80708l.1063-3.78426a1.882,1.882,0,0,0-1.78583-1.91338,1.90067,1.90067,0,0,1-1.91338-1.89213L15.18813,9.69449a1.95257,1.95257,0,0,1,1.89213-1.89212l19.389-.2126a1.85426,1.85426,0,0,1,1.91339,1.91338L38.06372,60.548a2.03748,2.03748,0,0,1-1.59449,1.99843Zm64.65118-.29764c-.89291,0-1.29685-.91417-1.29685-2.29606,0-.29764-.29764-21.685-.51023-25.97953C96.422,23.9811,93.93459,13.88268,80.43458,14.18032c-11.07637.29764-15.17952,7.10079-16.07243,9.09921a2.19541,2.19541,0,0,0-.3189,1.10551c0,1.10551.10629,4.48583.10629,4.48583-.10629,1.50945.80788,1.99843,1.89214,2.10472H70.8464a1.5682,1.5682,0,0,0,1.70078-1.80708,10.92841,10.92841,0,0,1,.29764-3.189c.59528-.80787,1.99843-4.50708,7.69607-4.40079,5.1874.1063,6.18661,2.99764,6.78188,7.29213a56.0011,56.0011,0,0,1,.1063,8.39764,1.30311,1.30311,0,0,1-1.48819,1.29685c-.99921-.085-2.50866-.085-4.80472-.085-8.29134.085-14.79685,3.08267-17.68819,10.3748-2.29606,5.69764-1.59449,13.3937,3.21024,18.28346,2.785,2.8063,5.78268,3.50788,9.37559,3.29528,1.99843,0,6.69685-.38268,9.20551-2.99764a19.88,19.88,0,0,0,2.40237-3.189c.19133-.489.489-.489.489-.1063a2.46927,2.46927,0,0,1,.1063.80787,12.02607,12.02607,0,0,0,.19134,2.40236,2.7419,2.7419,0,0,0,2.7,2.5937c.51023,0,7.69606.1063,8.50393.1063a2.22085,2.22085,0,0,0,2.4874-2.211v-2.785c0-1.29685-.40393-2.7-1.99842-2.7Zm-21.98268-.80787c-3.189-.40394-4.50708-3.59292-4.59212-6.29292-.1063-2.7.29763-6.48425,4.88976-8.69527,2.40236-1.10552,6.39922-.59528,9.09922-.489a1.31609,1.31609,0,0,1,1.29684,1.29685c.10631,2.29606.10631,6.10158,0,7.69606C87.32277,58.76221,80.73223,62.14252,76.84167,61.54725Zm74.537,2.50866a1.96453,1.96453,0,0,0-1.99841-1.70079h-1.29685A1.85858,1.85858,0,0,1,146.085,60.463l-.19133-34.8874a2.038,2.038,0,0,1,1.78581-1.99842l1.59449-.19134a2.04735,2.04735,0,0,0,1.80709-1.91338v-4.1882a1.85858,1.85858,0,0,0-1.89213-1.99842l-14.58425-.1063a1.99214,1.99214,0,0,0-1.91339,1.91338v4.37954a2.02468,2.02468,0,0,0,1.8071,1.99842h.70156a1.98147,1.98147,0,0,1,1.78584,2.01968l.1063,8.78032a2.08947,2.08947,0,0,1-1.99843,2.10472H123.10309a1.98219,1.98219,0,0,1-1.99843-1.89212l-.29763-8.99292a2.01432,2.01432,0,0,1,1.99842-2.01968h.19134a1.99612,1.99612,0,0,0,1.99843-1.99842V17.178a2.00981,2.00981,0,0,0-1.99843-1.99843H110.30467a1.88676,1.88676,0,0,0-1.99843,1.91338l.2126,4.48583a2.01953,2.01953,0,0,0,1.99842,2.10473,1.88226,1.88226,0,0,1,1.89213,1.89212l.10629,34.56851a2.0182,2.0182,0,0,1-2.40235,1.91338A2.08455,2.08455,0,0,0,108.1149,64.141v3.91181a1.954,1.954,0,0,0,1.89212,1.89212l13.20237-.1063a2.27392,2.27392,0,0,0,2.18976-2.08346V64.45984a2.00619,2.00619,0,0,0-1.78583-1.99842h-.80787a1.97986,1.97986,0,0,1-1.70079-1.99843l.19134-15.39212a1.91852,1.91852,0,0,1,1.91339-1.91339h11.6929a2.06939,2.06939,0,0,1,2.08348,1.91339l.40394,15.39212a1.89518,1.89518,0,0,1-1.7008,1.99843l-1.99843.085c-.99921.1063-1.08424.99921-1.08424,1.99842V68.1378c0,1.40315,1.08424,1.70078,1.89213,1.70078h15.28581a1.76148,1.76148,0,0,0,1.7008-1.70078ZM188.24325,52.2567a3.00379,3.00379,0,0,0-2.785,2.7c-.40394,4.99607-3.10395,6.88819-8.99292,6.29292-6.69685-.70158-6.59055-7.58977-7.10079-12.88347a2.21941,2.21941,0,0,1,2.10473-2.29606s13.585-.29764,19.98426-.51024a3.62434,3.62434,0,0,0,3.5929-3.48661c0-15.68976-4.99606-27.489-17.87952-27.489-7.69607.2126-13.69134,3.59292-16.39134,12.58583-3.29528,10.6937-5.1874,39.47953,10.6937,43.07244,3.5929.80787,11.88425,1.59449,18.09212-3.59291,1.67953-1.40315,4.99607-5.59134,4.99607-8.29134.085-1.40315,0-2.50866,0-3.91181a2.25424,2.25424,0,0,0-2.211-2.29606C191.04955,52.1504,189.45506,52.2567,188.24325,52.2567Zm-7.48348-28.57323c1.89213,1.10551,3.29529,5.485,3.89056,9.29055a7.68665,7.68665,0,0,1,.21259.99921,2.91129,2.91129,0,0,1-2.91258,3.10394l-10.37482.085a2.24048,2.24048,0,0,1-2.211-2.4874C168.87553,27.978,173.95663,19.49528,180.75977,23.68347Zm26.78742,0a2.08312,2.08312,0,0,1,1.99841,1.99842c.085,3.78425.19135,12.88347-.40392,21.685-.70158,9.18425-3.29529,13.77638-7.99371,14.88189a2.32116,2.32116,0,0,0-1.89212,1.99843c-.2126,2.10472-.2126,5.20866.59527,5.4,5.78268,1.89212,11.07637.489,14.77558-5.889,6.10158-9.90709,3.99686-25.38425,5.69764-38.26772a1.958,1.958,0,0,1,1.89212-1.91338h8.69529a2.02185,2.02185,0,0,1,2.10472,1.99842l.29764,34.67481a2.077,2.077,0,0,1-2.18977,2.10472h-.29763a2.204,2.204,0,0,0-2.211,2.10472l-.085,3.38032a1.98037,1.98037,0,0,0,2.08347,2.10472h15.49843a2.2602,2.2602,0,0,0,2.18976-2.10472l.10629-3.29528a2.19667,2.19667,0,0,0-2.10472-2.18976h-1.08426a2.03485,2.03485,0,0,1-1.99841-2.10472l-.40394-34.46221a2.066,2.066,0,0,1,1.78583-2.10472h1.80709a1.97867,1.97867,0,0,0,1.80708-1.99843l.085-4.29448a2.04458,2.04458,0,0,0-2.10472-2.10473h-38.863a2.00981,2.00981,0,0,0-1.99842,1.99842V21.685a1.92541,1.92541,0,0,0,1.91339,1.99843Zm48.45116-8.39764a1.67191,1.67191,0,0,0-1.59449,1.70079c0,1.19055.10631,3.69921.10631,5.10236a1.6942,1.6942,0,0,0,1.48818,1.48819h1.10552a1.82771,1.82771,0,0,1,1.59449,1.59449c.40394,15.68976,0,19.09133,0,34.29212,0,1.89213-.29764,2.67874-1.89212,2.67874a1.80557,1.80557,0,0,0-1.80709,1.80709c0,1.29685.10629,2.8063.10629,4.40079a1.69167,1.69167,0,0,0,1.7008,1.70078c3.3803,0,6.99449.085,9.58819,0,8.88661-.29764,22.089.085,24.17245-12.09685,2.7-16.0937-2.7-25.49055-19.58033-26.5748a1.82666,1.82666,0,0,1-1.78582-1.70079c0-1.50945-.10631-3.29527-.10631-4.50708a1.579,1.579,0,0,1,1.59449-1.59449l1.8071-.1063a1.54542,1.54542,0,0,0,1.59449-1.48819l.10627-5.10236a1.58386,1.58386,0,0,0-1.61573-1.59449Zm13.39371,26.38346a1.75289,1.75289,0,0,1,1.8071-1.89212c8.589,0,8.48266,3.29527,8.48266,11.67165,0,8.1-1.19055,11.0126-8.69527,11.0126a1.7615,1.7615,0,0,1-1.7008-1.70079C269.09442,52.1504,269.58339,50.06693,269.39206,41.66929ZM313.9527,95.62677c4.20944,1.19055,16.9866,3.40158,22.089-10.28976,5.4-17.98583,11.5866-41.96693,16.17874-60.25039a1.83364,1.83364,0,0,1,1.59449-1.29685h.80785a2.77834,2.77834,0,0,0,2.5937-2.50866l.29764-3.29528a2.49792,2.49792,0,0,0-2.4874-2.8063H340.82514a2.50621,2.50621,0,0,0-2.4874,2.615l.10628,3.08268a2.69363,2.69363,0,0,0,2.29606,2.7l.78664.1063a1.30033,1.30033,0,0,1,.99918,1.48819c-.7866,3.21023-6.37795,27.978-7.88738,33.59055-.10631.38267-.70158.489-.80788.085-2.785-6.99449-9.078-30.57166-10.18346-34.67481a.438.438,0,0,1,.404-.59527c.7866,0,2.296-.19134,2.296-1.19055l.29767-4.40079a2.4481,2.4481,0,0,0-2.40237-2.7l-11.39528-.1063a2.48176,2.48176,0,0,0-2.4874,2.50866l-.1063,3.189a2.92384,2.92384,0,0,0,2.5937,2.8063,1.41214,1.41214,0,0,1,1.40316.99921l14.79683,44.77323a2.0012,2.0012,0,0,1,.10631,1.08425c-.61652,6.50551-.99922,10.9063-2.10474,13.20236-2.29607,4.78346-6.20787,5.0811-10.99133,4.48583-1.7008-.70158-3.21023,0-3.8055,2.5937C311.25269,94.9252,312.76212,95.0315,313.9527,95.62677Zm76.83307-32.974a1.7732,1.7732,0,0,0-1.48822,1.89212V68.1378a1.718,1.718,0,0,0,1.7008,1.80708l15.8811-.1063a1.82423,1.82423,0,0,0,1.8071-1.89212V64.45984a1.95777,1.95777,0,0,0-1.9134-1.80708h-.38266a1.91411,1.91411,0,0,1-1.91341-1.89213l.51025-36.07795a2.03323,2.03323,0,0,1,1.78582-1.80709l1.70079-.085a1.77217,1.77217,0,0,0,1.7008-1.80708l.1063-3.89056a1.97307,1.97307,0,0,0-1.89212-1.91338H363.50939a1.93431,1.93431,0,0,0-1.89213,1.99843l.10631,3.80551a1.92931,1.92931,0,0,0,1.70076,1.80708l1.59449.085a1.95552,1.95552,0,0,1,1.78585,1.91339l-.08506,35.674a1.87592,1.87592,0,0,1-1.70079,1.89213l-1.50943.1063a1.92155,1.92155,0,0,0-1.7008,1.89212v3.69922a1.90068,1.90068,0,0,0,1.91338,1.89212h14.98819A1.78755,1.78755,0,0,0,380.496,68.1378l.10631-3.78426a1.811,1.811,0,0,0-1.80707-1.89212,1.88143,1.88143,0,0,1-1.78585-1.91339l-.29764-35.759a1.88145,1.88145,0,0,1,1.78585-1.91339l13.90393-.085a1.83025,1.83025,0,0,1,1.89212,1.89213L394.18732,60.548c0,.89292-.59527,1.99843-1.48818,2.10473Zm65.948-29.67874c-1.59449-12.28819-8.37635-17.68819-14.37165-18.5811-5.50629-.51024-8.50393,1.29685-10.28975,4.10314-.21261.19134-.40394.085-.40394-.10629V16.98662a1.78657,1.78657,0,0,0-1.7008-1.80709l-11.289.1063a1.65708,1.65708,0,0,0-1.70079,1.80708l.1063,4.88977a1.48721,1.48721,0,0,0,1.38188,1.48819h2.40237a1.54372,1.54372,0,0,1,1.50947,1.50945l.085,59.76141a2.31363,2.31363,0,0,1-2.29607,2.29607h-1.70079a2.25773,2.25773,0,0,0-2.08345,2.18976v3.50787a2.06005,2.06005,0,0,0,2.08345,2.18977h16.7953a2.26022,2.26022,0,0,0,2.29606-2.29607l.10628-3.10393a2.42129,2.42129,0,0,0-2.296-2.40236H433.8582a2.26023,2.26023,0,0,1-2.29607-2.29607c0-3.89055-.1063-12.47952-.1063-16.689a.54178.54178,0,0,1,.91419-.38268c2.38109,2.5937,5.1874,3.189,8.29132,2.89134,6.39923-.80788,12.18188-4.99606,14.77558-12.50079C457.9456,51.25748,456.94639,40.37244,456.73378,32.974ZM444.44559,58.84725c-3.189,5.10236-8.185,4.69842-11.58661,2.5937a2.10531,2.10531,0,0,1-1.10552-1.89213V26.6811a2.73409,2.73409,0,0,1,.21261-.89291c9.77954-8.90787,14.28662,7.58976,14.28662,14.58425C446.25269,43.45512,446.95427,55.063,444.44559,58.84725Zm56.35986,3.50787c-.89291,0-1.29685-.91417-1.29685-2.29606,0-.29764-.29764-21.685-.489-25.97953-.61652-10.09843-3.10392-20.19685-16.60393-19.89921-11.07636.29764-15.17953,7.10079-16.07244,9.09921a2.164,2.164,0,0,0-.29763,1.10551c0,1.10551.085,4.48583.085,4.48583-.085,1.50945.80789,1.99843,1.91341,2.10472h4.78346a1.56821,1.56821,0,0,0,1.7008-1.80708,10.92877,10.92877,0,0,1,.29763-3.189c.59528-.80787,1.99843-4.50708,7.69605-4.40079,5.18741.1063,6.18663,2.99764,6.80315,7.29213a58.82451,58.82451,0,0,1,.08506,8.39764,1.30312,1.30312,0,0,1-1.48822,1.29685c-.99918-.085-2.50865-.085-4.80471-.085-8.29133.085-14.77559,3.08267-17.68817,10.3748-2.29607,5.69764-1.59449,13.3937,3.21022,18.28346,2.785,2.8063,5.78268,3.50788,9.39685,3.29528,1.99843,0,6.67559-.38268,9.18426-2.99764a19.87928,19.87928,0,0,0,2.40234-3.189c.19137-.489.489-.489.489-.1063a2.46971,2.46971,0,0,1,.10628.80787,12.02484,12.02484,0,0,0,.19136,2.40236,2.74187,2.74187,0,0,0,2.7,2.5937c.51024,0,7.69608.1063,8.50393.1063a2.22084,2.22084,0,0,0,2.4874-2.211v-2.785c0-1.29685-.40391-2.7-1.9984-2.7Zm-21.9827-.80787c-3.189-.40394-4.48583-3.59292-4.5921-6.29292s.29764-6.48425,4.88974-8.69527c2.40237-1.10552,6.39923-.59528,9.09924-.489a1.31608,1.31608,0,0,1,1.29682,1.29685c.1063,2.29606.1063,6.10158,0,7.69606C489.32512,58.76221,482.71331,62.14252,478.82275,61.54725Zm32.78271.59527a1.63446,1.63446,0,0,0-1.50947,1.61575l.10631,4.69842a1.579,1.579,0,0,0,1.59449,1.59449c4.80471,0,18.38975-.1063,21.08976-.1063,5.1874,0,15.68974-3.29527,15.88107-15.49842.21261-7.97244-2.10471-11.778-7.10078-14.074-.38266-.1063-.48894-.59527-.085-.91417A11.14063,11.14063,0,0,0,545.1747,36.078c4.18819-5.61259,1.99843-15.79606-6.2929-19.19763-7.29211-2.4874-22.089-1.70079-27.085-1.48819a1.49291,1.49291,0,0,0-1.48819,1.59449l.19133,4.80472a1.56265,1.56265,0,0,0,1.50943,1.59449h1.78586a1.56265,1.56265,0,0,1,1.50943,1.59449c.38269,8.48267.489,25.97952-.29764,35.78031a1.52684,1.52684,0,0,1-1.50943,1.38189Zm13.88267-15.7748a1.566,1.566,0,0,1,1.59449-1.59449c2.5937,0,6.59053-.2126,8.80157,2.4874,2.89134,3.50787,2.4874,8.80158.59527,12.09685-1.89212,3.189-6.69687,2.99764-9.58821,2.785a1.59044,1.59044,0,0,1-1.40312-1.59449Zm.40391-21.3874a1.52178,1.52178,0,0,1,1.48821-1.70079c1.80707-.1063,4.61339,0,6.2929.99921,3.31653,1.99843,3.80553,5.5063,2.50868,8.80158-1.10552,2.785-6.1016,2.89134-8.589,2.99763a1.72467,1.72467,0,0,1-1.70079-1.50944Zm36.46065-1.29685a2.06752,2.06752,0,0,1,1.99843,1.99842c.10627,3.78425.21261,12.88347-.40394,21.685-.68033,9.18425-3.29525,13.77638-7.97245,14.88189a2.36865,2.36865,0,0,0-1.91337,1.99843c-.19133,2.10472-.19133,5.20866.59528,5.4,5.80389,1.89212,11.09764.489,14.79683-5.889,6.10156-9.90709,3.99686-25.38425,5.69762-38.26772a1.958,1.958,0,0,1,1.89216-1.91338h8.69526a2.03485,2.03485,0,0,1,2.10471,1.99842l.29767,34.67481a2.077,2.077,0,0,1-2.18977,2.10472h-.31888a2.19917,2.19917,0,0,0-2.18983,2.10472l-.10627,3.38032a1.99685,1.99685,0,0,0,2.1047,2.10472h15.49845a2.2762,2.2762,0,0,0,2.18976-2.10472l.10634-3.29528a2.212,2.212,0,0,0-2.10477-2.18976h-1.10549a2.03488,2.03488,0,0,1-1.99843-2.10472l-.40394-34.46221a2.08356,2.08356,0,0,1,1.8071-2.10472h1.8071a1.961,1.961,0,0,0,1.78582-1.99843l.10627-4.29448a2.04456,2.04456,0,0,0-2.1047-2.10473h-38.863a1.99608,1.99608,0,0,0-1.99843,1.99842V21.685a1.92137,1.92137,0,0,0,1.89209,1.99843ZM639.99361,52.2567a2.98587,2.98587,0,0,0-2.785,2.7c-.40394,4.99607-3.10392,6.88819-8.99287,6.29292-6.6969-.70158-6.61184-7.58977-7.10084-12.88347a2.19075,2.19075,0,0,1,2.10477-2.29606s13.585-.29764,19.98423-.51024a3.62437,3.62437,0,0,0,3.59292-3.48661c0-15.68976-4.99607-27.489-17.87953-27.489-7.69606.2126-13.69135,3.59292-16.39132,12.58583-3.29532,10.6937-5.20869,39.47953,10.6937,43.07244,3.59291.80787,11.88424,1.59449,18.07086-3.59291,1.70076-1.40315,4.99608-5.59134,4.99608-8.29134.10627-1.40315,0-2.50866,0-3.91181a2.23643,2.23643,0,0,0-2.18976-2.29606C642.79992,52.1504,641.20543,52.2567,639.99361,52.2567Zm-7.48344-28.57323c1.89209,1.10551,3.29525,5.485,3.89052,9.29055a5.54333,5.54333,0,0,1,.19133.99921,2.88233,2.88233,0,0,1-2.89131,3.10394l-10.39609.085a2.22466,2.22466,0,0,1-2.18976-2.4874C620.60464,27.978,625.707,19.49528,632.51017,23.68347ZM697.055,64.05591a1.96452,1.96452,0,0,0-1.99843-1.70079h-1.29681a1.85861,1.85861,0,0,1-1.99844-1.89213l-.21261-34.8874a2.057,2.057,0,0,1,1.8071-1.99842l1.59449-.19134a2.0474,2.0474,0,0,0,1.8071-1.91338v-4.1882a1.86336,1.86336,0,0,0-1.91337-1.99842l-14.58429-.1063a1.973,1.973,0,0,0-1.89209,1.91338v4.37954a2.02467,2.02467,0,0,0,1.807,1.99842h.70161a1.98146,1.98146,0,0,1,1.78582,2.01968l.10627,8.78032A2.08943,2.08943,0,0,1,680.77,36.37559H668.77945a1.98218,1.98218,0,0,1-1.99843-1.89212l-.2976-8.99292a2.01429,2.01429,0,0,1,1.99836-2.01968h.1914a1.99613,1.99613,0,0,0,1.99843-1.99842V17.178a2.00982,2.00982,0,0,0-1.99843-1.99843H655.98105a1.88675,1.88675,0,0,0-1.99843,1.91338l.21261,4.48583a2.01951,2.01951,0,0,0,1.99837,2.10473,1.88229,1.88229,0,0,1,1.89215,1.89212L658.192,60.1441a2.02845,2.02845,0,0,1-2.40231,1.91338,2.08452,2.08452,0,0,0-1.99843,2.08347v3.91181a1.954,1.954,0,0,0,1.89209,1.89212l13.20234-.1063a2.2739,2.2739,0,0,0,2.18977-2.08346V64.45984a2.02462,2.02462,0,0,0-1.807-1.99842h-.78667A1.97988,1.97988,0,0,1,666.781,60.463l.19133-15.39212a1.91852,1.91852,0,0,1,1.91337-1.91339h11.6717a2.08925,2.08925,0,0,1,2.10471,1.91339l.40394,15.39212a1.89517,1.89517,0,0,1-1.70076,1.99843l-1.99843.085c-.99922.1063-1.10556.99921-1.10556,1.99842V68.1378c0,1.40315,1.10556,1.70078,1.91338,1.70078h15.28583a1.76151,1.76151,0,0,0,1.70082-1.70078Zm21.79134-16.39134a.53251.53251,0,0,1-.99921-.29764c-.31889-8.2063.19139-15.8811.19139-21.98267a1.48119,1.48119,0,0,1,1.48815-1.59449l2.31732-.3189a1.64626,1.64626,0,0,0,1.38187-1.38189,45.419,45.419,0,0,0,.10634-5.4,1.44827,1.44827,0,0,0-1.48821-1.40315c-5.50629,0-12.09686.1063-16.2.1063h-.70155a1.50683,1.50683,0,0,0-1.70082,1.59449c.10633,1.40315,0,3.69921.10633,5.10236a1.41355,1.41355,0,0,0,1.59449,1.38189,8.989,8.989,0,0,0,1.50943-.085,1.579,1.579,0,0,1,1.59449,1.59449c0,12.79842.10627,22.68425.10627,35.86535a1.60493,1.60493,0,0,1-1.807,1.61575h-.59527a1.31089,1.31089,0,0,0-1.5095,1.29685,48.83611,48.83611,0,0,0,0,4.99606,1.31865,1.31865,0,0,0,1.21183,1.29685c3.59292,0,5.59135-.1063,9.07793-.1063a1.64414,1.64414,0,0,0,1.31816-.59527c3.9968-5.59134,15.37083-26.48976,19.17636-32.78268a.53308.53308,0,0,1,.99921.29764c.29761,9.39685-.19133,15.28583.19133,24.1937a1.37771,1.37771,0,0,1-1.48821,1.29685c-3.80547,0-2.50865,1.89213-2.50865,6.18661a1.45388,1.45388,0,0,0,1.50943,1.40315c3.69926.1063,12.77719.19134,15.68978,0a1.52381,1.52381,0,0,0,1.40315-1.40315,24.32017,24.32017,0,0,0,0-4.48582,1.62247,1.62247,0,0,0-1.50943-1.50945h-1.8071a1.69427,1.69427,0,0,1-1.48821-1.48819c-.51022-11.09764-.40388-24.385-.40388-35.674a1.57859,1.57859,0,0,1,1.807-1.59449h.08505a1.69476,1.69476,0,0,0,1.8071-1.50945c0-1.48819.19133-3.59292.19133-5.4a1.54558,1.54558,0,0,0-1.59448-1.48819h-9.58821a1.40547,1.40547,0,0,0-1.19055.59528C734.21724,19.79292,723.43849,41.074,718.84635,47.66457ZM793.7873,69.94488a1.74443,1.74443,0,0,0,1.67954-1.80708l-.08506-4.18819a1.746,1.746,0,0,0-1.59448-1.70079h-.80782a1.71224,1.71224,0,0,1-1.70083-1.78583c.40394-8.39763.10634-25.49055.10634-35.674a1.75294,1.75294,0,0,1,1.78582-1.70079h.2976a2.223,2.223,0,0,0,2.211-2.211V17.39056a2.204,2.204,0,0,0-2.1047-2.211c-1.59449-.085-3.59292-.085-4.78347-.085-6.6969.19134-10.69369-.2126-17.3906.19134-6.80311.40394-13.09607,6.29291-13.2874,17.09291-.21254,8.07874,2.2961,13.585,9.3756,15.77481a1.06476,1.06476,0,0,1,.70161,1.50944c-2.89137,6.10158-4.8898,9.88583-5.78268,11.69292a1.56216,1.56216,0,0,1-1.50949.89291l-3.189.1063a1.677,1.677,0,0,0-1.59449,1.78583V68.2441a1.73259,1.73259,0,0,0,1.70083,1.70078l8.99287.1063a1.6194,1.6194,0,0,0,1.48822-.91417c1.70076-3.29528,7.10078-13.989,9.29054-18.07087a1.66551,1.66551,0,0,1,1.50949-.91417c1.29682.1063.29761.2126,1.59449.2126a1.53662,1.53662,0,0,1,1.40309,1.48819V60.548a1.67517,1.67517,0,0,1-1.6157,1.70079,1.76542,1.76542,0,0,0-1.67955,1.80709l.08506,4.29449a1.69166,1.69166,0,0,0,1.70076,1.70078ZM782.17944,40.37244a1.75293,1.75293,0,0,1-1.70076,1.78583c-5.48508,0-12.28819-.19134-12.47952-8.69528-.19139-8.589,4.69841-11.67165,12.7984-10.67244a1.4872,1.4872,0,0,1,1.38188,1.48819Z" style="fill:#5984d6"/></svg>